<svg width="32" height="24" viewBox="0 0 32 24" fill="none" xmlns="http://www.w3.org/2000/svg">
<g clip-path="url(#clip0)">
<path d="M31.9 12.4727L1.6 12.4727L7.6 18.6056C7.8 18.8101 7.8 19.1167 7.6 19.3211C7.6 19.3211 7.5 19.3211 7.5 19.4233C7.4 19.5256 7.2 19.5256 7 19.4233C7 19.3211 7 19.3211 6.9 19.2189L0.1 12.2683C0 12.1661 0 12.1661 0 12.0639C0 12.0639 0 12.0639 0 11.9617C0 11.8595 0 11.7572 0 11.7572C0 11.655 0.1 11.655 0.1 11.655L6.9 4.60222C7 4.5 7.1 4.5 7.3 4.5C7.5 4.5 7.6 4.5 7.7 4.60222C7.9 4.80664 7.9 5.11329 7.7 5.31772L1.7 11.4506L31.9 11.4506V12.4727Z" fill="#6E6660"/>
</g>
<defs>
<clipPath id="clip0">
<rect width="32" height="24" fill="white" transform="matrix(-1 0 0 1 32 0)"/>
</clipPath>
</defs>
</svg>
