<svg width="32" height="16" viewBox="0 0 32 16" fill="none" xmlns="http://www.w3.org/2000/svg">
<path d="M31.8999 8.47274L1.59988 8.47274L7.59988 14.6056C7.79988 14.8101 7.79988 15.1167 7.59988 15.3211C7.59988 15.3211 7.49988 15.3211 7.49988 15.4233C7.39988 15.5256 7.19988 15.5256 6.99988 15.4233C6.99988 15.3211 6.99988 15.3211 6.89988 15.2189L0.0998779 8.26831C-0.00012207 8.1661 -0.00012207 8.1661 -0.00012207 8.06388C-0.00012207 8.06388 -0.00012207 8.06389 -0.00012207 7.96167C-0.00012207 7.85946 -0.00012207 7.75724 -0.00012207 7.75724C-0.00012207 7.65503 0.0998779 7.65503 0.0998779 7.65503L6.89988 0.602216C6.99988 0.500001 7.09988 0.5 7.29988 0.5C7.49988 0.5 7.59988 0.500001 7.69988 0.602216C7.89988 0.806644 7.89988 1.11329 7.69988 1.31772L1.69988 7.4506L31.8999 7.4506V8.47274Z" fill="#6E6660"/>
</svg>
