<svg width="32" height="16" viewBox="0 0 32 16" fill="none" xmlns="http://www.w3.org/2000/svg">
<path d="M-9.72748e-05 7.52726H30.2999L24.2999 1.39438C24.0999 1.18995 24.0999 0.883304 24.2999 0.678875C24.2999 0.678875 24.3999 0.678876 24.3999 0.576661C24.4999 0.474446 24.6999 0.474446 24.8999 0.576661C24.8999 0.678876 24.8999 0.678875 24.9999 0.78109L31.7999 7.73169C31.8999 7.8339 31.8999 7.8339 31.8999 7.93612C31.8999 7.93612 31.8999 7.93611 31.8999 8.03833C31.8999 8.14054 31.8999 8.24276 31.8999 8.24276C31.8999 8.34497 31.7999 8.34497 31.7999 8.34497L24.9999 15.3978C24.8999 15.5 24.7999 15.5 24.5999 15.5C24.3999 15.5 24.2999 15.5 24.1999 15.3978C23.9999 15.1934 23.9999 14.8867 24.1999 14.6823L30.1999 8.5494H-9.72748e-05V7.52726Z" fill="#271317"/>
</svg>
