<svg width="15" height="11" viewBox="0 0 15 11" fill="none" xmlns="http://www.w3.org/2000/svg">
<path d="M0.853553 5.14645C0.658291 4.95118 0.341709 4.95118 0.146447 5.14645C-0.0488155 5.34171 -0.0488155 5.65829 0.146447 5.85355L0.853553 5.14645ZM5 10L4.64645 10.3536L5 10.7071L5.35355 10.3536L5 10ZM14.3536 1.35355C14.5488 1.15829 14.5488 0.841709 14.3536 0.646447C14.1583 0.451184 13.8417 0.451184 13.6464 0.646447L14.3536 1.35355ZM0.146447 5.85355L4.64645 10.3536L5.35355 9.64645L0.853553 5.14645L0.146447 5.85355ZM5.35355 10.3536L14.3536 1.35355L13.6464 0.646447L4.64645 9.64645L5.35355 10.3536Z" fill="#271317"/>
</svg>
