<svg width="24" height="24" viewBox="0 0 24 24" fill="none" xmlns="http://www.w3.org/2000/svg">
<circle cx="12" cy="12" r="9.5" stroke="#271317" stroke-opacity="0.1"/>
<path d="M17 12L17.3536 12.3536L17.7071 12L17.3536 11.6464L17 12ZM12.3536 6.64645C12.1583 6.45118 11.8417 6.45118 11.6464 6.64645C11.4512 6.84171 11.4512 7.15829 11.6464 7.35355L12.3536 6.64645ZM11.6464 16.6464C11.4512 16.8417 11.4512 17.1583 11.6464 17.3536C11.8417 17.5488 12.1583 17.5488 12.3536 17.3536L11.6464 16.6464ZM7 12.5H17V11.5H7V12.5ZM11.6464 7.35355L16.6464 12.3536L17.3536 11.6464L12.3536 6.64645L11.6464 7.35355ZM16.6464 11.6464L11.6464 16.6464L12.3536 17.3536L17.3536 12.3536L16.6464 11.6464Z" fill="#6E6660"/>
</svg>
