<svg width="24" height="24" viewBox="0 0 24 24" fill="none" xmlns="http://www.w3.org/2000/svg">
<path d="M18.5999 10.9999C18.5999 6.82376 15.176 3.3999 10.9999 3.3999M18.5999 10.9999C18.5999 15.176 15.176 18.5999 10.9999 18.5999M18.5999 10.9999C18.5999 15.2238 15.2238 18.5999 10.9999 18.5999M18.5999 10.9999C18.5999 6.77605 15.2238 3.3999 10.9999 3.3999M10.9999 3.3999C6.82376 3.3999 3.3999 6.82376 3.3999 10.9999M10.9999 3.3999C6.77605 3.3999 3.3999 6.77605 3.3999 10.9999M10.9999 18.5999C6.82376 18.5999 3.3999 15.176 3.3999 10.9999M10.9999 18.5999C6.77605 18.5999 3.3999 15.2238 3.3999 10.9999" stroke="#271317"/>
<path d="M21 21L16.7 16.7" stroke="#271317" stroke-miterlimit="10"/>
</svg>
